<svg version="1.1" id="Layer_1" xmlns="http://www.w3.org/2000/svg" x="0" y="0" viewBox="0 0 256 256" style="enable-background:new 0 0 256 256" xml:space="preserve"><style>.st1{fill:#f9cfcf}.st2{fill:#f9a7a7}.st3{fill:#a4c9ff}.st4{fill:#3762cc}.st5{fill:#e0ebfc}.st6{fill:#6bdddd}</style><path class="st3" d="M140.98 229.169H62.02a5.52 5.52 0 1 1 0-11.04h78.96a5.52 5.52 0 1 1 0 11.04z"/><path d="M149.5 32.831v190.338a6 6 0 0 0 6 6h83a6 6 0 0 0 6-6V32.831a6 6 0 0 0-6-6h-83a6 6 0 0 0-6 6z" style="fill:#4671c6"/><path class="st5" d="M230.268 111.081h-63.036a3.482 3.482 0 0 1-3.482-3.482V90.313a3.482 3.482 0 0 1 3.482-3.482h63.036a3.482 3.482 0 0 1 3.482 3.482v17.286a3.482 3.482 0 0 1-3.482 3.482z"/><circle class="st1" cx="198.75" cy="173.015" r="10.688"/><path class="st5" d="M230.268 69.081h-63.036a3.482 3.482 0 0 1-3.482-3.482V48.313a3.482 3.482 0 0 1 3.482-3.482h63.036a3.482 3.482 0 0 1 3.482 3.482v17.286a3.482 3.482 0 0 1-3.482 3.482z"/><path class="st6" d="M155.5 229.169h8.25v-86.636a7.118 7.118 0 0 0-2.798-5.658l-11.452-8.749v95.043a6 6 0 0 0 6 6zM230.25 229.169h8.25a6 6 0 0 0 6-6v-95.043l-11.452 8.749a7.121 7.121 0 0 0-2.798 5.658v86.636z"/><path class="st4" d="M238.5 231.169h-83c-4.411 0-8-3.589-8-8V32.831c0-4.411 3.589-8 8-8h83c4.411 0 8 3.589 8 8v190.338c0 4.411-3.589 8-8 8zm-83-202.338c-2.206 0-4 1.794-4 4v190.338c0 2.206 1.794 4 4 4h83c2.206 0 4-1.794 4-4V32.831c0-2.206-1.794-4-4-4h-83z"/><path class="st4" d="M230.268 113.081h-63.036a5.488 5.488 0 0 1-5.482-5.482V90.313a5.488 5.488 0 0 1 5.482-5.482h63.036a5.488 5.488 0 0 1 5.482 5.482v17.286a5.488 5.488 0 0 1-5.482 5.482zm-63.036-24.25c-.817 0-1.482.665-1.482 1.482v17.286c0 .817.665 1.482 1.482 1.482h63.036c.817 0 1.482-.665 1.482-1.482V90.313c0-.817-.665-1.482-1.482-1.482h-63.036zM198.75 185.703c-6.996 0-12.688-5.691-12.688-12.688s5.691-12.688 12.688-12.688 12.687 5.691 12.687 12.688-5.691 12.688-12.687 12.688zm0-21.375c-4.791 0-8.688 3.897-8.688 8.688s3.897 8.688 8.688 8.688 8.687-3.897 8.687-8.688-3.896-8.688-8.687-8.688zM230.268 71.081h-63.036a5.488 5.488 0 0 1-5.482-5.482V48.313a5.488 5.488 0 0 1 5.482-5.482h63.036a5.488 5.488 0 0 1 5.482 5.482v17.286a5.488 5.488 0 0 1-5.482 5.482zm-63.036-24.25c-.817 0-1.482.665-1.482 1.482v17.286c0 .817.665 1.482 1.482 1.482h63.036c.817 0 1.482-.665 1.482-1.482V48.313c0-.817-.665-1.482-1.482-1.482h-63.036zM163.75 231.169h-8.25c-4.411 0-8-3.589-8-8v-95.043a2 2 0 0 1 3.215-1.589l11.453 8.75a9.171 9.171 0 0 1 3.583 7.247v86.636a2.002 2.002 0 0 1-2.001 1.999zM151.5 132.17v90.999c0 2.206 1.794 4 4 4h6.25v-84.636a5.148 5.148 0 0 0-2.012-4.068l-8.238-6.295zM238.5 231.169h-8.25a2 2 0 0 1-2-2v-86.636a9.171 9.171 0 0 1 3.583-7.247l11.453-8.75a2 2 0 0 1 3.215 1.589v95.043c-.001 4.412-3.59 8.001-8.001 8.001zm-6.25-4h6.25c2.206 0 4-1.794 4-4V132.17l-8.238 6.294a5.148 5.148 0 0 0-2.012 4.068v84.637z"/><path class="st3" d="M183.5 196.831h-164a8 8 0 0 1-8-8v-104a8 8 0 0 1 8-8h164a8 8 0 0 1 8 8v104a8 8 0 0 1-8 8z"/><path class="st6" d="M21.5 183.831v-94a3 3 0 0 1 3-3h154a3 3 0 0 1 3 3v94a3 3 0 0 1-3 3h-154a3 3 0 0 1-3-3z"/><path class="st5" d="M84 196.831h35v21.298H84z"/><path class="st4" d="M140.98 231.169H62.02c-4.146 0-7.52-3.374-7.52-7.52s3.374-7.52 7.52-7.52h78.96c4.146 0 7.52 3.374 7.52 7.52s-3.374 7.52-7.52 7.52zm-78.96-11.04c-1.941 0-3.52 1.579-3.52 3.52s1.579 3.52 3.52 3.52h78.96c1.941 0 3.52-1.579 3.52-3.52s-1.579-3.52-3.52-3.52H62.02zM183.5 198.831h-164c-5.514 0-10-4.486-10-10v-104c0-5.514 4.486-10 10-10h164c5.514 0 10 4.486 10 10v104c0 5.514-4.486 10-10 10zm-164-120c-3.309 0-6 2.691-6 6v104c0 3.309 2.691 6 6 6h164c3.309 0 6-2.691 6-6v-104c0-3.309-2.691-6-6-6h-164z"/><path class="st4" d="M119 220.129H84a2 2 0 0 1-2-2v-21.298a2 2 0 0 1 2-2h35a2 2 0 0 1 2 2v21.298a2 2 0 0 1-2 2zm-33-4h31v-17.298H86v17.298z"/><path class="st2" d="M44.957 112.717h-11.79a2.339 2.339 0 0 1-2.339-2.339v-11.79a2.339 2.339 0 0 1 2.339-2.339h11.79a2.339 2.339 0 0 1 2.339 2.339v11.79a2.34 2.34 0 0 1-2.339 2.339z"/><path class="st1" d="M44.957 137.663h-11.79a2.339 2.339 0 0 1-2.339-2.339v-11.79a2.339 2.339 0 0 1 2.339-2.339h11.79a2.339 2.339 0 0 1 2.339 2.339v11.79a2.34 2.34 0 0 1-2.339 2.339z"/><path class="st2" d="M44.957 164.168h-11.79a2.339 2.339 0 0 1-2.339-2.339v-11.79a2.339 2.339 0 0 1 2.339-2.339h11.79a2.339 2.339 0 0 1 2.339 2.339v11.79a2.34 2.34 0 0 1-2.339 2.339z"/><path class="st5" d="M21.5 173.947v9.884a3 3 0 0 0 3 3h154a3 3 0 0 0 3-3v-9.884h-160z"/><path class="st4" d="M178.5 188.831h-154c-2.757 0-5-2.243-5-5v-94c0-2.757 2.243-5 5-5h154c2.757 0 5 2.243 5 5v94c0 2.757-2.243 5-5 5zm-154-100c-.551 0-1 .449-1 1v94c0 .551.449 1 1 1h154c.551 0 1-.449 1-1v-94c0-.551-.449-1-1-1h-154z"/></svg>